# xmcd
#
# Track frame offsets:
#	150
#	18292
#	32935
#	50555
#	64185
#	81115
#	106351
#	120827
#	137772
#	154570
#	178121
#	195959
#
# Disc length: 2965 seconds
#
# Revision: 0
# Processed by: cddbd v1.5.2PL0 Copyright (c) Steve Scherf et al.
# Submitted via: dBpowerAMP V4.0
#
DISCID=940b930c
DTITLE=The Bands of Heathens - One Foot in the Ether
DYEAR=2009
DGENRE=Southern Rock
TTITLE0=L.A. County Blues (Radio version)
TTITLE1=Say (Radio version)
TTITLE2=Shine A Light
TTITLE3=Golden Calf
TTITLE4=What's This World (Radio version)
TTITLE5=You're Gonna Miss Me (Radio version)
TTITLE6=Right Here With Me (Radio version)
TTITLE7=Let Your Heart Not Be Troubled
TTITLE8=Somebody Tell the Truth (Radio version)
TTITLE9=Look at Miss Ohio
TTITLE10=Talking Out Loud (Radio version)
TTITLE11=Hey Rider
EXTD=
EXTT0=
EXTT1=
EXTT2=
EXTT3=
EXTT4=
EXTT5=
EXTT6=
EXTT7=
EXTT8=
EXTT9=
EXTT10=
EXTT11=
PLAYORDER=
